<?xml version="1.0" encoding="utf-8"?>
<!-- Generator: Adobe Illustrator 25.4.1, SVG Export Plug-In . SVG Version: 6.00 Build 0)  -->
<svg version="1.1" id="Capa_1" xmlns="http://www.w3.org/2000/svg" xmlns:xlink="http://www.w3.org/1999/xlink" x="0px" y="0px"
	 viewBox="0 0 240 84" style="enable-background:new 0 0 240 84;" xml:space="preserve">
<style type="text/css">
	.st0{clip-path:url(#SVGID_00000106854827787579312810000001387272467947606442_);fill:#303134;}
	.st1{fill:#FFFFFF;}
	.st2{fill:none;stroke:#000000;stroke-miterlimit:10;}
	.st3{opacity:0.74;}
	.st4{fill:#A0CB44;}
</style>
<g>
	<path class="st3" d="M67.81,46.52l3.8,1.36c-0.69,0.96-1.48,1.88-2.36,2.76c-4.29,4.29-9.47,6.43-15.55,6.43
		c-6.05,0-11.22-2.14-15.51-6.43c-4.29-4.29-6.43-9.47-6.43-15.55c0-6.05,2.14-11.22,6.43-15.51c4.29-4.29,9.46-6.43,15.51-6.43
		c6.07,0,11.26,2.15,15.55,6.43c0.88,0.88,1.66,1.79,2.36,2.72l-3.8,1.4c-0.4-0.48-0.83-0.96-1.28-1.44
		c-3.54-3.52-7.82-5.28-12.83-5.28c-4.98,0-9.25,1.77-12.79,5.3c-3.54,3.53-5.32,7.8-5.32,12.81c0,5.01,1.77,9.29,5.32,12.83
		c3.54,3.54,7.81,5.32,12.79,5.32c5.01,0,9.28-1.77,12.83-5.32C66.98,47.47,67.41,47,67.81,46.52z"/>
	<path class="st3" d="M202.49,16.71l-9.67,11.99l15.43,27.26h-4.48l-13.31-24.38l-3.52,4.36v20.02h-3.6V0h3.6v30.17l10.91-13.47
		H202.49z"/>
	<path class="st3" d="M102.53,18.52c9.4,0,17.05,7.65,17.05,17.05s-7.65,17.05-17.05,17.05s-17.05-7.65-17.05-17.05
		S93.12,18.52,102.53,18.52 M102.53,17.76c-9.84,0-17.81,7.97-17.81,17.81s7.97,17.81,17.81,17.81c9.84,0,17.81-7.97,17.81-17.81
		S112.36,17.76,102.53,17.76L102.53,17.76z"/>
	<path class="st3" d="M152.55,57.17h-51.53c-6.49,0-11.89-2.11-16.05-6.27c-4.34-4.34-6.55-9.65-6.55-15.77
		c0-6.15,2.2-11.47,6.55-15.81c3.93-3.93,9.9-6.1,16.81-6.1h50.78v0.76h-50.78c-6.7,0-12.48,2.09-16.27,5.88
		c-4.2,4.2-6.32,9.34-6.32,15.28c0,5.92,2.13,11.04,6.32,15.24c4.01,4.01,9.23,6.04,15.51,6.04h51.53V57.17z"/>
	<g>
		<path class="st4" d="M130.43,35.49c-0.01-13.46,10.94-22.75,22.5-22.57c13.48,0.21,22.83,11.17,22.31,23.52
			c-0.51,12.15-11.04,21.94-23.36,21.33C139.35,57.14,130.51,47.22,130.43,35.49z M170.88,34.4c-0.47-10.18-9.36-17.88-19.48-17.07
			c-9.75,0.78-17.53,9.29-16.51,19.85c0.91,9.5,9.16,16.94,19.45,16.2C163.96,52.69,171.58,43.92,170.88,34.4z"/>
		<path class="st4" d="M183.03,79.31c0.06,1.04-0.45,1.8-1.26,2.31c-1.12,0.71-2.27,1.37-3.45,1.97c-1.55,0.79-2.78,0.45-3.63-1.09
			c-1.05-1.91-1.98-3.88-2.96-5.83c-3.12-6.24-6.22-12.49-9.36-18.72c-0.34-0.68-0.29-1,0.43-1.3c1.42-0.59,2.71-1.42,3.94-2.34
			c0.51-0.38,0.78-0.37,1.16,0.24c3.56,5.68,7.17,11.33,10.75,17c1.33,2.1,2.62,4.22,3.95,6.31
			C182.91,78.32,183.04,78.79,183.03,79.31z M177.45,80.33c0.84-0.03,1.72-1.05,1.7-1.98c-0.01-0.78-0.96-1.65-1.78-1.64
			c-1.07,0.01-1.85,0.89-1.8,2.02C175.62,79.63,176.47,80.36,177.45,80.33z"/>
		<path class="st4" d="M152.78,52.35c-9.52-0.06-16.8-7.67-16.93-16.57c-0.15-10.25,8.03-17.51,17.13-17.41
			c9.37,0.1,16.75,7.52,16.87,16.64C169.97,45.07,162.02,52.41,152.78,52.35z"/>
	</g>
</g>
</svg>
